<?xml version="1.0" encoding="utf-8"?>
<!-- Generator: Adobe Illustrator 16.0.0, SVG Export Plug-In . SVG Version: 6.00 Build 0)  -->
<!DOCTYPE svg PUBLIC "-//W3C//DTD SVG 1.1//EN" "http://www.w3.org/Graphics/SVG/1.1/DTD/svg11.dtd">
<svg version="1.1" id="Wit_clean" xmlns="http://www.w3.org/2000/svg" xmlns:xlink="http://www.w3.org/1999/xlink" x="0px" y="0px"
	 width="554.523px" height="78.267px" viewBox="0 0 554.523 78.267" enable-background="new 0 0 554.523 78.267"
	 xml:space="preserve">
<g>
	<g>
		<path d="M489.679,11.376l12.806,4.423L499.128,0h9.825l3.357,15.803l10.929-4.421l4.746,9.763l-11.184,4.298l10.667,13.05
			l-6.003,5.967L510.97,32.126l-5.52,12.333l-8.537-5.967l5.178-13.05l-13.01-4.298L489.679,11.376z"/>
	</g>
	<g>
		<path fill="none" stroke="#FFFFFF" stroke-width="2" d="M489.679,11.376l12.806,4.423L499.128,0h9.825l3.357,15.803l10.929-4.421
			l4.746,9.763l-11.184,4.298l10.667,13.05l-6.003,5.967L510.97,32.126l-5.52,12.333l-8.537-5.967l5.178-13.05l-13.01-4.298
			L489.679,11.376z"/>
	</g>
	<g>
		<path fill="#FFFFFF" d="M489.679,11.376l12.806,4.423L499.128,0h9.825l3.357,15.803l10.929-4.421l4.746,9.763l-11.184,4.298
			l10.667,13.05l-6.003,5.967L510.97,32.126l-5.52,12.333l-8.537-5.967l5.178-13.05l-13.01-4.298L489.679,11.376z"/>
	</g>
</g>
<g>
	<g>
		<path stroke="#FFFFFF" d="M0.596,3.226h16.278l9.741,55.244h25.406l3.183,18.048H13.519L0.596,3.226z"/>
		<path stroke="#FFFFFF" d="M50.329,3.226h16.313l12.924,73.292H63.252L50.329,3.226z"/>
		<path stroke="#FFFFFF" d="M74.62,3.226h49.482l3.191,18.098h-16.602l9.732,55.194h-16.278l-9.732-55.194H77.812L74.62,3.226z"/>
		<path stroke="#FFFFFF" d="M133.375,39.921c-2.109-11.965-1.356-21.28,2.259-27.946c3.616-6.666,9.7-10,18.252-10
			c8.769,0,16.101,3.275,22,9.824c5.898,6.548,9.887,15.723,11.967,27.521c1.511,8.566,1.713,15.59,0.607,21.073
			s-3.347,9.749-6.727,12.798c-3.379,3.05-7.992,4.575-13.837,4.575c-5.941,0-11.09-1.316-15.447-3.949
			c-4.357-2.633-8.249-6.8-11.673-12.499C137.353,55.62,134.886,48.488,133.375,39.921z M149.671,40.021
			c1.305,7.399,3.23,12.717,5.777,15.948c2.546,3.233,5.52,4.85,8.922,4.85c3.497,0,5.925-1.582,7.284-4.749
			c1.357-3.166,1.314-8.849-0.132-17.048c-1.216-6.899-3.106-11.941-5.667-15.123c-2.562-3.183-5.555-4.775-8.981-4.775
			c-3.282,0-5.632,1.617-7.05,4.85C148.405,27.207,148.354,32.556,149.671,40.021z"/>
		<path stroke="#FFFFFF" d="M188.928,3.226h46.067l2.583,14.649L215.57,60.769h30.649l2.777,15.748h-49.985l-2.68-15.198
			l21.778-42.445h-26.424L188.928,3.226z"/>
		<path stroke="#FFFFFF" d="M244.051,3.226h16.314l12.923,73.292h-16.313L244.051,3.226z"/>
		<path stroke="#FFFFFF" d="M272.008,3.226h43.624l2.76,15.648h-27.311l2.055,11.648h25.334l2.635,14.948h-25.334l2.549,14.449h28.1
			l2.927,16.598h-44.415L272.008,3.226z"/>
		<path stroke="#FFFFFF" d="M325.263,3.226h16.278l4.884,27.697l12.168-27.697h21.649L365.896,30.89l28.132,45.627h-20.047
			l-16.421-30.141l-6.25,12.256l3.153,17.885h-16.278L325.263,3.226z"/>
		<path stroke="#FFFFFF" d="M386.495,3.226h16.278l9.741,55.244h25.405l3.183,18.048h-41.685L386.495,3.226z"/>
		<path stroke="#FFFFFF" d="M478.759,64.418h-18.481l-0.435,12.099h-16.62l6.876-73.292h17.757l32.719,73.292h-17.047
			L478.759,64.418z M472.587,48.57l-10.46-26.346l-1.108,26.346H472.587z"/>
	</g>
	<g>
		<path fill="none" stroke="#FFFFFF" stroke-width="2" d="M0.596,3.226h16.278l9.741,55.244h25.406l3.183,18.048H13.519L0.596,3.226
			z"/>
		<path fill="none" stroke="#FFFFFF" stroke-width="2" d="M50.329,3.226h16.313l12.924,73.292H63.252L50.329,3.226z"/>
		<path fill="none" stroke="#FFFFFF" stroke-width="2" d="M74.62,3.226h49.482l3.191,18.098h-16.602l9.732,55.194h-16.278
			l-9.732-55.194H77.812L74.62,3.226z"/>
		<path fill="none" stroke="#FFFFFF" stroke-width="2" d="M133.375,39.921c-2.109-11.965-1.356-21.28,2.259-27.946
			c3.616-6.666,9.7-10,18.252-10c8.769,0,16.101,3.275,22,9.824c5.898,6.548,9.887,15.723,11.967,27.521
			c1.511,8.566,1.713,15.59,0.607,21.073s-3.347,9.749-6.727,12.798c-3.379,3.05-7.992,4.575-13.837,4.575
			c-5.941,0-11.09-1.316-15.447-3.949c-4.357-2.633-8.249-6.8-11.673-12.499C137.353,55.62,134.886,48.488,133.375,39.921z
			 M149.671,40.021c1.305,7.399,3.23,12.717,5.777,15.948c2.546,3.233,5.52,4.85,8.922,4.85c3.497,0,5.925-1.582,7.284-4.749
			c1.357-3.166,1.314-8.849-0.132-17.048c-1.216-6.899-3.106-11.941-5.667-15.123c-2.562-3.183-5.555-4.775-8.981-4.775
			c-3.282,0-5.632,1.617-7.05,4.85C148.405,27.207,148.354,32.556,149.671,40.021z"/>
		<path fill="none" stroke="#FFFFFF" stroke-width="2" d="M188.928,3.226h46.067l2.583,14.649L215.57,60.769h30.649l2.777,15.748
			h-49.985l-2.68-15.198l21.778-42.445h-26.424L188.928,3.226z"/>
		<path fill="none" stroke="#FFFFFF" stroke-width="2" d="M244.051,3.226h16.314l12.923,73.292h-16.313L244.051,3.226z"/>
		<path fill="none" stroke="#FFFFFF" stroke-width="2" d="M272.008,3.226h43.624l2.76,15.648h-27.311l2.055,11.648h25.334
			l2.635,14.948h-25.334l2.549,14.449h28.1l2.927,16.598h-44.415L272.008,3.226z"/>
		<path fill="none" stroke="#FFFFFF" stroke-width="2" d="M325.263,3.226h16.278l4.884,27.697l12.168-27.697h21.649L365.896,30.89
			l28.132,45.627h-20.047l-16.421-30.141l-6.25,12.256l3.153,17.885h-16.278L325.263,3.226z"/>
		<path fill="none" stroke="#FFFFFF" stroke-width="2" d="M386.495,3.226h16.278l9.741,55.244h25.405l3.183,18.048h-41.685
			L386.495,3.226z"/>
		<path fill="none" stroke="#FFFFFF" stroke-width="2" d="M478.759,64.418h-18.481l-0.435,12.099h-16.62l6.876-73.292h17.757
			l32.719,73.292h-17.047L478.759,64.418z M472.587,48.57l-10.46-26.346l-1.108,26.346H472.587z"/>
	</g>
	<g>
		<path fill="#FFFFFF" d="M0.596,3.226h16.278l9.741,55.244h25.406l3.183,18.048H13.519L0.596,3.226z"/>
		<path fill="#FFFFFF" d="M50.329,3.226h16.313l12.924,73.292H63.252L50.329,3.226z"/>
		<path fill="#FFFFFF" d="M74.62,3.226h49.482l3.191,18.098h-16.602l9.732,55.194h-16.278l-9.732-55.194H77.812L74.62,3.226z"/>
		<path fill="#FFFFFF" d="M133.375,39.921c-2.109-11.965-1.356-21.28,2.259-27.946c3.616-6.666,9.7-10,18.252-10
			c8.769,0,16.101,3.275,22,9.824c5.898,6.548,9.887,15.723,11.967,27.521c1.511,8.566,1.713,15.59,0.607,21.073
			s-3.347,9.749-6.727,12.798c-3.379,3.05-7.992,4.575-13.837,4.575c-5.941,0-11.09-1.316-15.447-3.949
			c-4.357-2.633-8.249-6.8-11.673-12.499C137.353,55.62,134.886,48.488,133.375,39.921z M149.671,40.021
			c1.305,7.399,3.23,12.717,5.777,15.948c2.546,3.233,5.52,4.85,8.922,4.85c3.497,0,5.925-1.582,7.284-4.749
			c1.357-3.166,1.314-8.849-0.132-17.048c-1.216-6.899-3.106-11.941-5.667-15.123c-2.562-3.183-5.555-4.775-8.981-4.775
			c-3.282,0-5.632,1.617-7.05,4.85C148.405,27.207,148.354,32.556,149.671,40.021z"/>
		<path fill="#FFFFFF" d="M188.928,3.226h46.067l2.583,14.649L215.57,60.769h30.649l2.777,15.748h-49.985l-2.68-15.198
			l21.778-42.445h-26.424L188.928,3.226z"/>
		<path fill="#FFFFFF" d="M244.051,3.226h16.314l12.923,73.292h-16.313L244.051,3.226z"/>
		<path fill="#FFFFFF" d="M272.008,3.226h43.624l2.76,15.648h-27.311l2.055,11.648h25.334l2.635,14.948h-25.334l2.549,14.449h28.1
			l2.927,16.598h-44.415L272.008,3.226z"/>
		<path fill="#FFFFFF" d="M325.263,3.226h16.278l4.884,27.697l12.168-27.697h21.649L365.896,30.89l28.132,45.627h-20.047
			l-16.421-30.141l-6.25,12.256l3.153,17.885h-16.278L325.263,3.226z"/>
		<path fill="#FFFFFF" d="M386.495,3.226h16.278l9.741,55.244h25.405l3.183,18.048h-41.685L386.495,3.226z"/>
		<path fill="#FFFFFF" d="M478.759,64.418h-18.481l-0.435,12.099h-16.62l6.876-73.292h17.757l32.719,73.292h-17.047L478.759,64.418z
			 M472.587,48.57l-10.46-26.346l-1.108,26.346H472.587z"/>
	</g>
</g>
<g>
	<g>
		<path stroke="#FFFFFF" d="M512.894,76.538l-8.904-19.107h3.814l4.307,9.752l1.324,3.256c0.052-0.826,0.081-1.373,0.086-1.637
			c0.025-0.54,0.061-1.08,0.103-1.619l0.893-9.752h3.737l-2.088,19.107H512.894z"/>
		<path stroke="#FFFFFF" d="M523.18,76.538l-0.694-3.94l3.697-8.222c0.607-1.344,1.064-2.297,1.37-2.861
			c-0.416,0.036-0.968,0.061-1.655,0.072l-4.844,0.036l-0.739-4.192h11.354l0.632,3.58l-3.766,8.42l-1.357,2.789
			c0.994-0.083,1.611-0.126,1.853-0.126h5.625l0.784,4.444H523.18z"/>
		<path stroke="#FFFFFF" d="M541.238,76.538l-7.714-19.107h3.53l4.781,12.522l0.159-12.522h3.504l4.497,12.522l0.418-12.522h3.582
			l-1.041,19.107h-3.491l-4.533-12.288l-0.161,12.288H541.238z"/>
	</g>
	<g>
		<path fill="#FFFFFF" d="M512.894,76.538l-8.904-19.107h3.814l4.307,9.752l1.324,3.256c0.052-0.826,0.081-1.373,0.086-1.637
			c0.025-0.54,0.061-1.08,0.103-1.619l0.893-9.752h3.737l-2.088,19.107H512.894z"/>
		<path fill="#FFFFFF" d="M523.18,76.538l-0.694-3.94l3.697-8.222c0.607-1.344,1.064-2.297,1.37-2.861
			c-0.416,0.036-0.968,0.061-1.655,0.072l-4.844,0.036l-0.739-4.192h11.354l0.632,3.58l-3.766,8.42l-1.357,2.789
			c0.994-0.083,1.611-0.126,1.853-0.126h5.625l0.784,4.444H523.18z"/>
		<path fill="#FFFFFF" d="M541.238,76.538l-7.714-19.107h3.53l4.781,12.522l0.159-12.522h3.504l4.497,12.522l0.418-12.522h3.582
			l-1.041,19.107h-3.491l-4.533-12.288l-0.161,12.288H541.238z"/>
	</g>
</g>
</svg>
